<svg xmlns="http://www.w3.org/2000/svg" viewBox="0 0 118.8 31.5" fill="#dc143c"><path d="M8.5 0C3.8 0 0 3.8 0 8.5v14.2c0 4.7 3.8 8.5 8.5 8.5V19.8h2.8v11.3h8.5V0H8.5zm2.8 11.3H8.5V8.5h2.8v2.8zm18.5-2.8H44V0H21.3v31.2H44V11.3H32.6v8.5h2.8v2.8h-5.7V8.5zm49.1 15.7l-.1-.7-.1-.7-.2-.6-.2-.6-.3-.5-.3-.5-.4-.5-.4-.4-.5-.4-.5-.3-.5-.2-.6-.2-.6-.1-.7-.1h-.7-.5-.4l-.4.1-.4.1-.4.1-.4.1-.3.2-.4.2-.3.2-.3.2-.3.3-.3.3-.3.3-.2.3-.2.3-.2.4-.2.4-.1.4-.1.4-.1.3-.1.4-.1.4v.5.5.7l.1.7.1.6.1.6.2.6.2.5.3.5.3.5.4.4.4.4.5.3.5.3.5.2.6.2.6.1.6.1h.7.7l.6-.1.6-.1.6-.2.5-.2.5-.3.5-.4.4-.4.4-.5.3-.5.3-.5.2-.6.2-.6.1-.6.1-.7v-.7-.1-.8zm-3.9 1v.4.4.3l-.1.3-.1.3-.1.3-.1.2-.1.2-.1.2-.2.2-.2.1-.2.1-.2.1-.2.1h-.2-.3-.3-.2l-.2-.1-.2-.1-.2-.1-.2-.1-.2-.2-.1-.2-.1-.2-.2-.3-.1-.3-.1-.3-.1-.3v-.4-.4-.4-.7-.4-.3l.1-.3.1-.3.1-.3.1-.2.1-.2.1-.2.1-.2.2-.1.2-.1.2-.1.2-.1.2-.1h.2.2.3.2l.2.1.2.1.2.1.2.1.2.2.1.2.1.2.1.3.1.3.1.3.1.3v.4.4.4.4zm17.4-1.1l-.1-.7-.1-.7-.1-.6-.2-.6-.2-.5-.3-.5-.2-.5-.3-.4-.4-.3-.5-.3-.4-.2-.5-.2-.5-.1-.5-.1h-.6-.4l-.4.1-.4.1-.4.1-.3.2-.3.1-.3.3-.3.3v-6.3h-3.9v17.9h3.5l.2-1.3.3.4.3.3.4.3.4.2.4.2.4.1.4.1h.5.6l.5-.1.5-.1.5-.2.4-.2.4-.3.4-.3.3-.4.3-.4.3-.5.2-.5.2-.6.1-.6.1-.7.1-.7v-.8-.2l-.1-.8zm-3.9 1v.4.3.3.3.2.2.2l-.1.3-.1.3-.2.2-.2.2-.2.1-.3.1-.3.1h-.3-.3-.3l-.3-.1-.2-.1-.5-.1-.2-.1-.2-.2-.1-.2v-5l.1-.2.2-.3.2-.2.2-.1.2-.1.3-.1h.3.3.2.2l.2.1.2.1.2.1.2.1.1.2.1.2.1.2.1.2.1.3.1.3.1.3v.4.4.4l.1.3zm9.8 6.1h-3.9V18.6h3.9v12.6zm-4.2-15.9h0v-.2-.2-.2l.1-.2.1-.2.1-.2.1-.1.1-.1h0l.2-.1.2-.1.2-.1.2-.1.2-.1h.2.2.2 0 .2.2.2l.2.1.2.1.2.1.2.1.2.1h0l.1.1.1.1.1.2.1.2.1.2v.2.2.2h0v.2.2.2l-.1.2-.1.2-.1.2-.1.1-.1.1h0l-.2.1-.2.1v.1l-.2.1-.2.1h-.2-.2-.2 0-.2-.2-.2l-.2-.1-.3-.1-.2-.1-.2-.1-.2-.1h0l-.1-.1-.1-.1-.1-.2-.1-.2-.1-.2v-.2-.2l-.1-.2zm10.8 15.9H101V13.3h3.9v17.9zm13.9-6.6v-.7l-.1-.7-.1-.6-.2-.6-.2-.6-.3-.5-.3-.5-.4-.4-.4-.4-.4-.3-.5-.3-.5-.2-.5-.2-.6-.1-.6-.1h-.6-.5-.4l-.4.1-.4.1-.4.1-.4.1-.4.2-.4.2-.3.2-.3.2-.3.3-.3.3-.3.3-.2.3-.2.3-.2.4-.2.4-.1.4-.1.4-.1.4-.1.4-.1.4v.5.5.3.7l.1.6.1.6.2.6.3.5.3.5.4.5.4.5.5.4.5.4.5.3.6.2.6.2.6.1.7.1h.7.4.4.4l.4-.1.4-.1.4-.1.1-.1.3-.1.3-.2.3-.2.3-.2.3-.2.3-.2.2-.2.2-.2.2-.2-1.8-2.1-.3.3-.3.3-.3.2-.4.2-.4.1-.4.1-.4.1h-.5-.3-.3-.3l-.2-.1-.2-.1-.2-.1-.2-.1-.2-.1-.2-.2-.2-.2-.1-.2-.1-.2-.1-.2-.1-.2-.1-.2-.1-.3h7.8v-1.7zm-3.9-.9h-4v-.3l.1-.3.1-.2.1-.2.1-.2.1-.2.1-.2.1-.2.1-.1.1-.1.2-.1.2-.1.2-.1h.2.2.2.2.2.2l.2.1.2.1.2.1.1.1.1.1.1.1.1.1.1.2.1.2.1.2v.2.2.2.4zM56.7 0l-1.4 2.5L53.9 0h-8.5v31.2h8.5V17l1.4 2.5 1.4-2.5v14.2c4.7 0 8.5-3.8 8.5-8.5V8.5c0-4.7-3.8-8.5-8.5-8.5zm4.2 17.7c-1.2 0-2.1-1-2.1-2.1s1-2.1 2.1-2.1 2.1 1 2.1 2.1-.9 2.1-2.1 2.1z"/></svg>
